<svg width="127" height="30" viewBox="0 0 127 30" fill="none" xmlns="http://www.w3.org/2000/svg">
<g clip-path="url(#clip0_1928_209)">
<path d="M49.1166 4.9L38.2666 19.6333V4.9H31.9833V29.9167H38.1833L42.7833 23.6667C42.9833 23.4 43.2999 23.25 43.6333 23.25C43.6333 23.25 43.6388 23.25 43.6499 23.25C43.9833 23.25 44.2999 23.4 44.4833 23.6833L48.9666 29.9167H56.4333L47.3833 17.4L56.6333 4.9H49.1166Z" fill="white"/>
<path d="M126.25 9.15L126.283 9.1V4.9H106.2V10.7H115.383C115.783 10.7 116.133 10.9167 116.317 11.2833C116.5 11.65 116.467 12.0667 116.217 12.3833L106.2 25.7167V29.9167H126.283V24.1H117.167C116.75 24.1 116.4 23.8833 116.217 23.5333C116.033 23.1667 116.067 22.75 116.317 22.4167L126.25 9.15Z" fill="white"/>
<path d="M96.0334 0.0833359H89.7334V3.85C89.7334 4.41667 89.2667 4.9 88.6834 4.9H87.2334V10.7H89.7334V29.7833L89.8667 29.9167H96.0334V11.75C96.0334 11.1667 96.5001 10.7 97.0834 10.7H102.917V4.9H96.0334V0.0833359Z" fill="white"/>
<path d="M77.5001 18.35V18.55C77.4167 21.6667 74.9001 24.1 71.7834 24.1C68.6667 24.1 66.1501 21.6667 66.0667 18.55V4.9H59.7667V20.2667C59.7667 21.85 60.3167 24.25 61.8501 26.25C63.7001 28.65 66.5834 29.9167 70.1501 29.9167H83.7834V4.9H77.5001V18.35Z" fill="white"/>
<path d="M13.3167 11.2833H5.83338V4.9H0.0500488V29.9167H0.0833822L13.3167 11.2833Z" fill="white"/>
<path d="M24.2334 10.4667L15.2667 23.45H22.7334V29.9167H28.5501V4.9H28.4501L24.2334 10.4667Z" fill="white"/>
</g>
<defs>
<clipPath id="clip0_1928_209">
<rect width="126.333" height="30" fill="white"/>
</clipPath>
</defs>
</svg>
